# Blender 5.2.1 LTS
# www.blender.org
mtllib wall_edge.mtl
o Cube
v -0.500000 -0.500000 0.500000
v -0.500000 0.500000 0.500000
v -0.500000 0.500000 -0.500000
v 0.500000 -0.500000 0.500000
v 0.500000 0.500000 0.500000
v 0.500000 0.500000 -0.500000
v -0.500000 0.180172 0.500000
v 0.500000 0.254097 0.500000
v -0.500000 0.180172 0.550000
v -0.500000 0.500000 0.550000
v -0.034310 0.500000 -0.500000
v 0.034310 0.500000 -0.500000
v -0.034310 -0.500000 0.500000
v 0.034310 -0.500000 0.500000
v 0.034310 0.500000 0.500000
v -0.034310 0.500000 0.500000
v 0.034310 0.280172 0.500000
v -0.034310 0.215669 0.500000
v 0.034310 0.500000 0.550000
v -0.034310 0.500000 0.550000
v 0.034310 0.280172 0.550000
v -0.034310 0.215669 0.550000
v 0.447052 0.500000 -0.500000
v 0.447052 -0.500000 0.500000
v 0.447052 0.500000 0.500000
v 0.447052 0.257062 0.500000
v 0.447052 0.500000 0.550000
v 0.447052 0.257062 0.550000
v -0.500000 0.500000 0.270770
v 0.500000 0.500000 0.270770
v 0.034310 0.500000 0.270770
v -0.034310 0.500000 0.270770
v 0.447052 0.500000 0.270770
v -0.034310 0.550207 0.500000
v -0.500000 0.550207 0.500000
v 0.447052 0.550207 0.500000
v 0.034310 0.550207 0.500000
v 0.034310 0.550207 0.270770
v -0.034310 0.550207 0.270770
v 0.447052 0.550207 0.270770
v -0.500000 0.550207 0.270770
vn -0.0000 -0.0000 -1.0000
vn -0.0000 -0.0000 1.0000
vn -1.0000 -0.0000 -0.0000
vn -0.0000 1.0000 -0.0000
vn 0.0760 -0.9971 -0.0000
vn 1.0000 -0.0000 -0.0000
vn -0.0559 -0.9984 -0.0000
vn -0.0000 0.7056 0.7086
vt 0.634475 0.692693
vt 0.708333 0.692693
vt 0.375000 0.916667
vt 0.570043 0.916667
vt 0.570043 1.000000
vt 0.375000 1.000000
vt 0.625000 0.916667
vt 0.625000 1.000000
vt 0.625000 0.000000
vt 0.570043 0.000000
vt 0.708333 0.750000
vt 0.625000 0.833333
vt 0.570043 0.833333
vt 0.570043 0.759475
vt 0.625000 0.759475
vt 0.791667 0.750000
vt 0.375000 0.759475
vt 0.375000 0.833333
vt 0.791667 0.692693
vt 0.875000 0.692693
vt 0.625000 0.692693
vt 0.634475 0.750000
vt 0.625000 0.750000
vt 0.375000 0.750000
vt 0.570043 0.750000
vt 0.625000 0.500000
vt 0.634475 0.500000
vt 0.708333 0.500000
vt 0.791667 0.500000
vt 0.875000 0.500000
vt 0.875000 0.750000
vt 0.625000 0.057307
s 0
usemtl Material.001
f 33/1/1 31/2/1 38/2/1 40/1/1
f 13/3/2 18/4/2 7/5/2 1/6/2
f 24/17/2 26/14/2 17/13/2 14/18/2
f 14/18/2 17/13/2 18/4/2 13/3/2
f 32/19/1 29/20/1 41/20/1 39/19/1
f 7/5/5 18/4/5 22/4/5 9/5/5
f 4/24/2 8/25/2 26/14/2 24/17/2
f 17/13/7 26/14/7 28/14/7 21/13/7
f 6/26/4 23/27/4 33/1/4 30/21/4
f 12/28/4 11/29/4 32/19/4 31/2/4
f 23/27/4 12/28/4 31/2/4 33/1/4
f 11/29/4 3/30/4 29/20/4 32/19/4
usemtl Material.002
f 22/4/2 20/7/2 10/8/2 9/5/2
f 2/9/3 7/10/3 9/10/3 10/9/3
f 15/11/3 19/12/3 37/11/3
f 17/13/3 21/13/3 19/12/3 15/11/3
f 28/14/2 27/15/2 19/12/2 21/13/2
f 18/4/6 16/16/6 20/7/6 22/4/6
f 26/14/6 25/22/6 27/15/6 28/14/6
f 39/19/4 41/20/4 35/31/4 34/16/4
f 20/7/6 16/16/6 34/16/6
f 40/1/4 38/2/4 37/11/4 36/22/4
f 2/9/3 10/9/3 35/9/3
f 31/2/3 15/11/3 37/11/3 38/2/3
f 29/32/3 2/9/3 35/9/3 41/32/3
f 16/16/6 32/19/6 39/19/6 34/16/6
f 27/15/6 25/22/6 36/22/6
f 25/22/6 33/1/6 40/1/6 36/22/6
usemtl Material.003
f 16/16/2 18/4/2 17/13/2 15/11/2
f 31/2/4 32/19/4 16/16/4 15/11/4
f 30/21/4 33/1/4 25/22/4 5/23/4
f 8/25/2 5/23/2 25/22/2 26/14/2
usemtl Material.004
f 10/9/8 20/7/8 34/16/8 35/9/8
f 19/12/8 27/15/8 36/22/8 37/11/8
